<svg width="838" height="156" viewBox="0 0 838 156" fill="none" xmlns="http://www.w3.org/2000/svg">
  <g clip-path="url(#clip0)">
    <rect width="838" height="156" fill="white" />
    <path fill-rule="evenodd" clip-rule="evenodd"
      d="M282.333 41C273.444 41 267.888 45.4445 265.666 54.3335C269 49.889 272.888 48.2223 277.333 49.3334C279.869 49.9674 281.681 51.8071 283.688 53.8435C286.956 57.1608 290.738 61.0002 299 61.0002C307.889 61.0002 313.444 56.5557 315.667 47.6667C312.333 52.1112 308.444 53.7779 304 52.6668C301.464 52.0328 299.652 50.1931 297.645 48.1567C294.377 44.8394 290.595 41 282.333 41ZM265.667 61.0003C256.778 61.0003 251.222 65.4448 249 74.3338C252.333 69.8893 256.222 68.2226 260.667 69.3337C263.203 69.9677 265.015 71.8074 267.021 73.8438C270.289 77.1611 274.072 81.0005 282.334 81.0005C291.223 81.0005 296.778 76.556 299.001 67.667C295.667 72.1115 291.778 73.7782 287.334 72.6671C284.798 72.0331 282.985 70.1934 280.979 68.157C277.711 64.8397 273.929 61.0003 265.667 61.0003Z"
      fill="#16BDCA" />
    <path fill-rule="evenodd" clip-rule="evenodd"
      d="M348.997 57.8516H343.18V69.111C343.18 72.1135 345.15 72.0665 348.997 71.8789V76.4296C341.209 77.3678 338.113 75.2098 338.113 69.111V57.8516H333.797V52.9725H338.113V46.6712L343.18 45.17V52.9725H348.997V57.8516ZM371.175 52.9721H376.242V76.4291H371.175V73.0513C369.392 75.5377 366.624 77.039 362.965 77.039C356.585 77.039 351.283 71.6439 351.283 64.7006C351.283 57.7104 356.585 52.3622 362.965 52.3622C366.624 52.3622 369.392 53.8634 371.175 56.303V52.9721ZM363.762 72.2059C367.985 72.2059 371.175 69.0626 371.175 64.6996C371.175 60.3366 367.985 57.1934 363.762 57.1934C359.54 57.1934 356.35 60.3366 356.35 64.6996C356.35 69.0626 359.54 72.2059 363.762 72.2059ZM384.686 49.4531C382.904 49.4531 381.449 47.9519 381.449 46.2161C381.449 44.4333 382.904 42.979 384.686 42.979C386.469 42.979 387.923 44.4333 387.923 46.2161C387.923 47.9519 386.469 49.4531 384.686 49.4531ZM382.148 76.4281V52.9711H387.215V76.4281H382.148ZM393.083 76.4289V42.1816H398.15V76.4289H393.083ZM431.034 52.9711H436.382L429.016 76.4281H424.043L419.164 60.6181L414.238 76.4281H409.265L401.9 52.9711H407.248L411.799 69.1565L416.725 52.9711H421.557L426.436 69.1565L431.034 52.9711ZM442.667 49.4531C440.885 49.4531 439.43 47.9519 439.43 46.2161C439.43 44.4333 440.885 42.979 442.667 42.979C444.45 42.979 445.905 44.4333 445.905 46.2161C445.905 47.9519 444.45 49.4531 442.667 49.4531ZM440.138 76.4281V52.9711H445.205V76.4281H440.138ZM463.407 52.3622C468.662 52.3622 472.415 55.9276 472.415 62.0265V76.4291H467.348V62.5425C467.348 58.9771 465.284 57.1005 462.094 57.1005C458.763 57.1005 456.136 59.0709 456.136 63.8561V76.4291H451.069V52.9721H456.136V55.9746C457.684 53.535 460.217 52.3622 463.407 52.3622ZM496.432 43.5902H501.499V76.4301H496.432V73.0522C494.649 75.5387 491.881 77.0399 488.222 77.0399C481.842 77.0399 476.54 71.6448 476.54 64.7015C476.54 57.7113 481.842 52.3631 488.222 52.3631C491.881 52.3631 494.649 53.8644 496.432 56.3039V43.5902ZM489.02 72.2059C493.242 72.2059 496.432 69.0626 496.432 64.6996C496.432 60.3366 493.242 57.1934 489.02 57.1934C484.797 57.1934 481.607 60.3366 481.607 64.6996C481.607 69.0626 484.797 72.2059 489.02 72.2059ZM518.478 77.039C511.394 77.039 506.093 71.6439 506.093 64.7006C506.093 57.7104 511.394 52.3622 518.478 52.3622C523.076 52.3622 527.063 54.7548 528.94 58.4141L524.577 60.9475C523.545 58.7425 521.246 57.3351 518.431 57.3351C514.303 57.3351 511.159 60.4783 511.159 64.7006C511.159 68.9228 514.303 72.0661 518.431 72.0661C521.246 72.0661 523.545 70.6117 524.671 68.4537L529.034 70.9401C527.063 74.6464 523.076 77.039 518.478 77.039ZM537.39 59.4462C537.39 63.7154 550.009 61.1351 550.009 69.8142C550.009 74.5056 545.928 77.039 540.861 77.039C536.17 77.039 532.792 74.9278 531.291 71.55L535.654 69.0167C536.404 71.1278 538.281 72.3945 540.861 72.3945C543.113 72.3945 544.849 71.6439 544.849 69.7673C544.849 65.5919 532.229 67.9376 532.229 59.54C532.229 55.1301 536.029 52.3622 540.814 52.3622C544.661 52.3622 547.851 54.1449 549.493 57.2412L545.224 59.6339C544.38 57.8042 542.738 56.9598 540.814 56.9598C538.985 56.9598 537.39 57.7573 537.39 59.4462ZM559.017 59.4462C559.017 63.7154 571.637 61.1351 571.637 69.8142C571.637 74.5056 567.555 77.039 562.488 77.039C557.797 77.039 554.419 74.9278 552.918 71.55L557.281 69.0167C558.032 71.1278 559.908 72.3945 562.488 72.3945C564.74 72.3945 566.476 71.6439 566.476 69.7673C566.476 65.5919 553.856 67.9376 553.856 59.54C553.856 55.1301 557.656 52.3622 562.442 52.3622C566.288 52.3622 569.479 54.1449 571.121 57.2412L566.851 59.6339C566.007 57.8042 564.365 56.9598 562.442 56.9598C560.612 56.9598 559.017 57.7573 559.017 59.4462Z"
      fill="black" />
    <path
      d="M355.224 112.224C357.432 112.224 359.16 110.928 359.16 108.512V100.8H356.968V108.512C356.968 109.424 356.44 110.064 355.224 110.064C354.296 110.064 353.784 109.712 353.432 109.008L351.528 110.096C352.216 111.488 353.512 112.224 355.224 112.224ZM368.525 112.224C370.989 112.224 372.813 110.752 372.813 108.336V100.8H370.605V108.16C370.605 109.248 370.029 110.064 368.525 110.064C367.021 110.064 366.445 109.248 366.445 108.16V100.8H364.253V108.336C364.253 110.752 366.077 112.224 368.525 112.224ZM381.826 112.224C384.21 112.224 385.891 110.944 385.891 108.848C385.891 106.56 384.003 105.968 382.227 105.408C380.53 104.896 380.098 104.528 380.098 103.84C380.098 103.2 380.642 102.72 381.57 102.72C382.707 102.72 383.314 103.312 383.714 104.16L385.571 103.088C384.819 101.52 383.411 100.576 381.57 100.576C379.65 100.576 377.89 101.792 377.89 103.904C377.89 106.032 379.554 106.752 381.266 107.248C382.931 107.728 383.682 108.048 383.682 108.88C383.682 109.504 383.219 110.064 381.891 110.064C380.498 110.064 379.714 109.392 379.314 108.352L377.426 109.456C378.034 111.12 379.538 112.224 381.826 112.224ZM397.532 100.8H389.292V102.912H392.3V112H394.508V102.912H397.532V100.8ZM401.152 108.16H407.152V106.176H401.152V108.16ZM412.431 100.8V112H414.639V100.8H412.431ZM426.392 100.8V107.632L421.592 100.8H419.912V112H422.12V105.152L426.92 112H428.6V100.8H426.392ZM433.878 108.16H439.878V106.176H433.878V108.16ZM451.751 100.8H443.511V102.912H446.519V112H448.727V102.912H451.751V100.8ZM456.184 100.8V112H458.392V100.8H456.184ZM474.625 100.8H472.353L469.153 106.096L465.937 100.8H463.665V112H465.873V104.752L469.025 109.936H469.281L472.433 104.736V112H474.625V100.8ZM482.12 109.888V107.376H486.36V105.296H482.12V102.912H486.76V100.8H479.912V112H486.84V109.888H482.12Z"
      fill="#16BDCA" />
  </g>
  <defs>
    <clipPath id="clip0">
      <rect width="838" height="156" fill="white" />
    </clipPath>
  </defs>
</svg>