<svg width="838" height="112" viewBox="0 0 838 112" fill="none" xmlns="http://www.w3.org/2000/svg">
  <g clip-path="url(#clip0)">
    <rect width="838" height="112" fill="white" />
    <path fill-rule="evenodd" clip-rule="evenodd"
      d="M291.333 16C282.444 16 276.888 20.4445 274.666 29.3335C278 24.889 281.888 23.2223 286.333 24.3334C288.869 24.9674 290.681 26.8071 292.688 28.8435C295.956 32.1608 299.738 36.0002 308 36.0002C316.889 36.0002 322.444 31.5557 324.667 22.6667C321.333 27.1112 317.444 28.7779 313 27.6668C310.464 27.0328 308.652 25.1931 306.645 23.1567C303.377 19.8394 299.595 16 291.333 16ZM274.667 36.0003C265.778 36.0003 260.222 40.4448 258 49.3338C261.333 44.8893 265.222 43.2226 269.667 44.3337C272.203 44.9677 274.015 46.8074 276.021 48.8438C279.289 52.1611 283.072 56.0005 291.334 56.0005C300.223 56.0005 305.778 51.556 308.001 42.667C304.667 47.1115 300.778 48.7782 296.334 47.6671C293.798 47.0331 291.985 45.1934 289.979 43.157C286.711 39.8397 282.929 36.0003 274.667 36.0003Z"
      fill="#06B6D4" />
    <path fill-rule="evenodd" clip-rule="evenodd"
      d="M357.997 32.8516H352.18V44.111C352.18 47.1135 354.15 47.0665 357.997 46.8789V51.4296C350.209 52.3678 347.113 50.2098 347.113 44.111V32.8516H342.797V27.9725H347.113V21.6712L352.18 20.17V27.9725H357.997V32.8516ZM380.175 27.9721H385.242V51.4291H380.175V48.0513C378.392 50.5377 375.624 52.039 371.965 52.039C365.585 52.039 360.283 46.6439 360.283 39.7006C360.283 32.7104 365.585 27.3622 371.965 27.3622C375.624 27.3622 378.392 28.8634 380.175 31.303V27.9721ZM372.762 47.2059C376.985 47.2059 380.175 44.0626 380.175 39.6996C380.175 35.3366 376.985 32.1934 372.762 32.1934C368.54 32.1934 365.35 35.3366 365.35 39.6996C365.35 44.0626 368.54 47.2059 372.762 47.2059ZM393.686 24.4531C391.904 24.4531 390.449 22.9519 390.449 21.2161C390.449 19.4333 391.904 17.979 393.686 17.979C395.469 17.979 396.923 19.4333 396.923 21.2161C396.923 22.9519 395.469 24.4531 393.686 24.4531ZM391.148 51.4281V27.9711H396.215V51.4281H391.148ZM402.083 51.4289V17.1816H407.15V51.4289H402.083ZM440.034 27.9711H445.382L438.016 51.4281H433.043L428.164 35.6181L423.238 51.4281H418.265L410.9 27.9711H416.248L420.799 44.1565L425.725 27.9711H430.557L435.436 44.1565L440.034 27.9711ZM451.667 24.4531C449.885 24.4531 448.43 22.9519 448.43 21.2161C448.43 19.4333 449.885 17.979 451.667 17.979C453.45 17.979 454.905 19.4333 454.905 21.2161C454.905 22.9519 453.45 24.4531 451.667 24.4531ZM449.138 51.4281V27.9711H454.205V51.4281H449.138ZM472.407 27.3622C477.662 27.3622 481.415 30.9276 481.415 37.0265V51.4291H476.348V37.5425C476.348 33.9771 474.284 32.1005 471.094 32.1005C467.763 32.1005 465.136 34.0709 465.136 38.8561V51.4291H460.069V27.9721H465.136V30.9746C466.684 28.535 469.217 27.3622 472.407 27.3622ZM505.432 18.5902H510.499V51.4301H505.432V48.0522C503.649 50.5387 500.881 52.0399 497.222 52.0399C490.842 52.0399 485.54 46.6448 485.54 39.7015C485.54 32.7113 490.842 27.3631 497.222 27.3631C500.881 27.3631 503.649 28.8644 505.432 31.3039V18.5902ZM498.02 47.2059C502.242 47.2059 505.432 44.0626 505.432 39.6996C505.432 35.3366 502.242 32.1934 498.02 32.1934C493.797 32.1934 490.607 35.3366 490.607 39.6996C490.607 44.0626 493.797 47.2059 498.02 47.2059ZM527.478 52.039C520.394 52.039 515.093 46.6439 515.093 39.7006C515.093 32.7104 520.394 27.3622 527.478 27.3622C532.076 27.3622 536.063 29.7548 537.94 33.4141L533.577 35.9475C532.545 33.7425 530.246 32.3351 527.431 32.3351C523.303 32.3351 520.159 35.4783 520.159 39.7006C520.159 43.9228 523.303 47.0661 527.431 47.0661C530.246 47.0661 532.545 45.6117 533.671 43.4537L538.034 45.9401C536.063 49.6464 532.076 52.039 527.478 52.039ZM546.39 34.4462C546.39 38.7154 559.01 36.1351 559.01 44.8142C559.01 49.5056 554.928 52.039 549.861 52.039C545.17 52.039 541.792 49.9278 540.291 46.55L544.654 44.0167C545.404 46.1278 547.281 47.3945 549.861 47.3945C552.113 47.3945 553.849 46.6439 553.849 44.7673C553.849 40.5919 541.229 42.9376 541.229 34.54C541.229 30.1301 545.029 27.3622 549.814 27.3622C553.661 27.3622 556.851 29.1449 558.493 32.2412L554.224 34.6339C553.38 32.8042 551.738 31.9598 549.814 31.9598C547.985 31.9598 546.39 32.7573 546.39 34.4462ZM568.017 34.4462C568.017 38.7154 580.637 36.1351 580.637 44.8142C580.637 49.5056 576.555 52.039 571.488 52.039C566.797 52.039 563.419 49.9278 561.918 46.55L566.281 44.0167C567.032 46.1278 568.908 47.3945 571.488 47.3945C573.74 47.3945 575.476 46.6439 575.476 44.7673C575.476 40.5919 562.856 42.9376 562.856 34.54C562.856 30.1301 566.656 27.3622 571.441 27.3622C575.288 27.3622 578.479 29.1449 580.121 32.2412L575.851 34.6339C575.007 32.8042 573.365 31.9598 571.441 31.9598C569.612 31.9598 568.017 32.7573 568.017 34.4462Z"
      fill="#111827" />
    <path
      d="M339.28 91.28C342.04 91.28 344.2 89.66 344.2 86.64V77H341.46V86.64C341.46 87.78 340.8 88.58 339.28 88.58C338.12 88.58 337.48 88.14 337.04 87.26L334.66 88.62C335.52 90.36 337.14 91.28 339.28 91.28ZM355.907 91.28C358.987 91.28 361.267 89.44 361.267 86.42V77H358.507V86.2C358.507 87.56 357.787 88.58 355.907 88.58C354.027 88.58 353.307 87.56 353.307 86.2V77H350.567V86.42C350.567 89.44 352.847 91.28 355.907 91.28ZM372.533 91.28C375.513 91.28 377.613 89.68 377.613 87.06C377.613 84.2 375.253 83.46 373.033 82.76C370.913 82.12 370.373 81.66 370.373 80.8C370.373 80 371.053 79.4 372.213 79.4C373.633 79.4 374.393 80.14 374.893 81.2L377.213 79.86C376.273 77.9 374.513 76.72 372.213 76.72C369.813 76.72 367.613 78.24 367.613 80.88C367.613 83.54 369.693 84.44 371.833 85.06C373.913 85.66 374.853 86.06 374.853 87.1C374.853 87.88 374.273 88.58 372.613 88.58C370.873 88.58 369.893 87.74 369.393 86.44L367.033 87.82C367.793 89.9 369.673 91.28 372.533 91.28ZM392.165 77H381.865V79.64H385.625V91H388.385V79.64H392.165V77ZM396.691 86.2H404.191V83.72H396.691V86.2ZM410.788 77V91H413.548V77H410.788ZM428.24 77V85.54L422.24 77H420.14V91H422.9V82.44L428.9 91H431V77H428.24ZM437.597 86.2H445.097V83.72H437.597V86.2ZM459.939 77H449.639V79.64H453.399V91H456.159V79.64H459.939V77ZM465.48 77V91H468.24V77H465.48ZM488.531 77H485.691L481.691 83.62L477.671 77H474.831V91H477.591V81.94L481.531 88.42H481.851L485.791 81.92V91H488.531V77ZM497.9 88.36V85.22H503.2V82.62H497.9V79.64H503.7V77H495.14V91H503.8V88.36H497.9Z"
      fill="#06B6D4" />
  </g>
  <defs>
    <clipPath id="clip0">
      <rect width="838" height="112" fill="white" />
    </clipPath>
  </defs>
</svg>