<svg width="838" height="112" viewBox="0 0 838 112" fill="none" xmlns="http://www.w3.org/2000/svg">
  <g clip-path="url(#clip0)">
    <rect width="838" height="112" fill="white" />
    <path fill-rule="evenodd" clip-rule="evenodd"
      d="M54.333 36C45.444 36 39.8884 40.4445 37.6662 49.3335C40.9995 44.889 44.8885 43.2223 49.333 44.3334C51.8688 44.9674 53.6813 46.8071 55.6875 48.8435C58.9557 52.1608 62.7381 56.0002 70.9998 56.0002C79.8888 56.0002 85.4444 51.5557 87.6667 42.6667C84.3333 47.1112 80.4444 48.7779 75.9999 47.6668C73.464 47.0328 71.6516 45.1931 69.6453 43.1567C66.3772 39.8394 62.5947 36 54.333 36ZM37.6668 56.0003C28.7779 56.0003 23.2222 60.4448 21 69.3338C24.3334 64.8893 28.2223 63.2226 32.6668 64.3337C35.2027 64.9677 37.0151 66.8074 39.0213 68.8438C42.2895 72.1611 46.0719 76.0005 54.3337 76.0005C63.2227 76.0005 68.7783 71.556 71.0005 62.667C67.6671 67.1115 63.7782 68.7782 59.3337 67.6671C56.7979 67.0331 54.9854 65.1934 52.9792 63.157C49.711 59.8397 45.9286 56.0003 37.6668 56.0003Z"
      fill="#06B6D4" />
    <path fill-rule="evenodd" clip-rule="evenodd"
      d="M120.997 52.8516H115.18V64.111C115.18 67.1135 117.15 67.0665 120.997 66.8789V71.4296C113.209 72.3678 110.113 70.2098 110.113 64.111V52.8516H105.797V47.9725H110.113V41.6712L115.18 40.17V47.9725H120.997V52.8516ZM143.175 47.9721H148.242V71.4291H143.175V68.0513C141.392 70.5377 138.624 72.039 134.965 72.039C128.585 72.039 123.283 66.6439 123.283 59.7006C123.283 52.7104 128.585 47.3622 134.965 47.3622C138.624 47.3622 141.392 48.8634 143.175 51.303V47.9721ZM135.762 67.2059C139.985 67.2059 143.175 64.0626 143.175 59.6996C143.175 55.3366 139.985 52.1934 135.762 52.1934C131.54 52.1934 128.35 55.3366 128.35 59.6996C128.35 64.0626 131.54 67.2059 135.762 67.2059ZM156.686 44.4531C154.904 44.4531 153.449 42.9519 153.449 41.2161C153.449 39.4333 154.904 37.979 156.686 37.979C158.469 37.979 159.923 39.4333 159.923 41.2161C159.923 42.9519 158.469 44.4531 156.686 44.4531ZM154.148 71.4281V47.9711H159.215V71.4281H154.148ZM165.083 71.4289V37.1816H170.15V71.4289H165.083ZM203.034 47.9711H208.382L201.016 71.4281H196.043L191.164 55.6181L186.238 71.4281H181.265L173.9 47.9711H179.248L183.799 64.1565L188.725 47.9711H193.557L198.436 64.1565L203.034 47.9711ZM214.667 44.4531C212.885 44.4531 211.43 42.9519 211.43 41.2161C211.43 39.4333 212.885 37.979 214.667 37.979C216.45 37.979 217.905 39.4333 217.905 41.2161C217.905 42.9519 216.45 44.4531 214.667 44.4531ZM212.138 71.4281V47.9711H217.205V71.4281H212.138ZM235.407 47.3622C240.662 47.3622 244.415 50.9276 244.415 57.0265V71.4291H239.348V57.5425C239.348 53.9771 237.284 52.1005 234.094 52.1005C230.763 52.1005 228.136 54.0709 228.136 58.8561V71.4291H223.069V47.9721H228.136V50.9746C229.684 48.535 232.217 47.3622 235.407 47.3622ZM268.432 38.5902H273.499V71.4301H268.432V68.0522C266.649 70.5387 263.881 72.0399 260.222 72.0399C253.842 72.0399 248.54 66.6448 248.54 59.7015C248.54 52.7113 253.842 47.3631 260.222 47.3631C263.881 47.3631 266.649 48.8644 268.432 51.3039V38.5902ZM261.02 67.2059C265.242 67.2059 268.432 64.0626 268.432 59.6996C268.432 55.3366 265.242 52.1934 261.02 52.1934C256.797 52.1934 253.607 55.3366 253.607 59.6996C253.607 64.0626 256.797 67.2059 261.02 67.2059ZM290.478 72.039C283.394 72.039 278.093 66.6439 278.093 59.7006C278.093 52.7104 283.394 47.3622 290.478 47.3622C295.076 47.3622 299.063 49.7548 300.94 53.4141L296.577 55.9475C295.545 53.7425 293.246 52.3351 290.431 52.3351C286.303 52.3351 283.159 55.4783 283.159 59.7006C283.159 63.9228 286.303 67.0661 290.431 67.0661C293.246 67.0661 295.545 65.6117 296.671 63.4537L301.034 65.9401C299.063 69.6464 295.076 72.039 290.478 72.039ZM309.39 54.4462C309.39 58.7154 322.01 56.1351 322.01 64.8142C322.01 69.5056 317.928 72.039 312.861 72.039C308.17 72.039 304.792 69.9278 303.291 66.55L307.654 64.0167C308.404 66.1278 310.281 67.3945 312.861 67.3945C315.113 67.3945 316.849 66.6439 316.849 64.7673C316.849 60.5919 304.229 62.9376 304.229 54.54C304.229 50.1301 308.029 47.3622 312.814 47.3622C316.661 47.3622 319.851 49.1449 321.493 52.2412L317.224 54.6339C316.38 52.8042 314.738 51.9598 312.814 51.9598C310.985 51.9598 309.39 52.7573 309.39 54.4462ZM331.017 54.4462C331.017 58.7154 343.637 56.1351 343.637 64.8142C343.637 69.5056 339.555 72.039 334.488 72.039C329.797 72.039 326.419 69.9278 324.918 66.55L329.281 64.0167C330.032 66.1278 331.908 67.3945 334.488 67.3945C336.74 67.3945 338.476 66.6439 338.476 64.7673C338.476 60.5919 325.856 62.9376 325.856 54.54C325.856 50.1301 329.656 47.3622 334.441 47.3622C338.288 47.3622 341.479 49.1449 343.121 52.2412L338.851 54.6339C338.007 52.8042 336.365 51.9598 334.441 51.9598C332.612 51.9598 331.017 52.7573 331.017 54.4462Z"
      fill="#111827" />
    <path
      d="M360.28 72.28C363.04 72.28 365.2 70.66 365.2 67.64V58H362.46V67.64C362.46 68.78 361.8 69.58 360.28 69.58C359.12 69.58 358.48 69.14 358.04 68.26L355.66 69.62C356.52 71.36 358.14 72.28 360.28 72.28ZM376.907 72.28C379.987 72.28 382.267 70.44 382.267 67.42V58H379.507V67.2C379.507 68.56 378.787 69.58 376.907 69.58C375.027 69.58 374.307 68.56 374.307 67.2V58H371.567V67.42C371.567 70.44 373.847 72.28 376.907 72.28ZM393.533 72.28C396.513 72.28 398.613 70.68 398.613 68.06C398.613 65.2 396.253 64.46 394.033 63.76C391.913 63.12 391.373 62.66 391.373 61.8C391.373 61 392.053 60.4 393.213 60.4C394.633 60.4 395.393 61.14 395.893 62.2L398.213 60.86C397.273 58.9 395.513 57.72 393.213 57.72C390.813 57.72 388.613 59.24 388.613 61.88C388.613 64.54 390.693 65.44 392.833 66.06C394.913 66.66 395.853 67.06 395.853 68.1C395.853 68.88 395.273 69.58 393.613 69.58C391.873 69.58 390.893 68.74 390.393 67.44L388.033 68.82C388.793 70.9 390.673 72.28 393.533 72.28ZM413.165 58H402.865V60.64H406.625V72H409.385V60.64H413.165V58ZM417.691 67.2H425.191V64.72H417.691V67.2ZM431.788 58V72H434.548V58H431.788ZM449.24 58V66.54L443.24 58H441.14V72H443.9V63.44L449.9 72H452V58H449.24ZM458.597 67.2H466.097V64.72H458.597V67.2ZM480.939 58H470.639V60.64H474.399V72H477.159V60.64H480.939V58ZM486.48 58V72H489.24V58H486.48ZM509.531 58H506.691L502.691 64.62L498.671 58H495.831V72H498.591V62.94L502.531 69.42H502.851L506.791 62.92V72H509.531V58ZM518.9 69.36V66.22H524.2V63.62H518.9V60.64H524.7V58H516.14V72H524.8V69.36H518.9Z"
      fill="#06B6D4" />
  </g>
  <defs>
    <clipPath id="clip0">
      <rect width="838" height="112" fill="white" />
    </clipPath>
  </defs>
</svg>